<mxfile host="Electron" modified="2024-05-08T11:45:39.209Z" agent="Mozilla/5.0 (Windows NT 10.0; Win64; x64) AppleWebKit/537.36 (KHTML, like Gecko) draw.io/24.0.4 Chrome/120.0.6099.109 Electron/28.1.0 Safari/537.36" etag="MGVWa9o7lPtZfhh5RF8o" version="24.0.4" type="device">
  <diagram name="Página-1" id="M16jrU7vFwaP9jjU5zz2">
    <mxGraphModel dx="1434" dy="844" grid="1" gridSize="10" guides="1" tooltips="1" connect="1" arrows="1" fold="1" page="1" pageScale="1" pageWidth="827" pageHeight="1169" math="0" shadow="0">
      <root>
        <mxCell id="0" />
        <mxCell id="1" parent="0" />
        <mxCell id="s7dhyp-YbU7fS7x3VsV7-1" value="" style="rounded=0;whiteSpace=wrap;html=1;" vertex="1" parent="1">
          <mxGeometry x="310" y="120" width="400" height="630" as="geometry" />
        </mxCell>
        <mxCell id="s7dhyp-YbU7fS7x3VsV7-2" value="Crear Viaje" style="ellipse;whiteSpace=wrap;html=1;" vertex="1" parent="1">
          <mxGeometry x="330" y="200" width="120" height="80" as="geometry" />
        </mxCell>
        <mxCell id="s7dhyp-YbU7fS7x3VsV7-3" value="Listar Viaje" style="ellipse;whiteSpace=wrap;html=1;" vertex="1" parent="1">
          <mxGeometry x="330" y="310" width="120" height="80" as="geometry" />
        </mxCell>
        <mxCell id="s7dhyp-YbU7fS7x3VsV7-4" value="Consultar gastos por viaje" style="ellipse;whiteSpace=wrap;html=1;" vertex="1" parent="1">
          <mxGeometry x="330" y="430" width="120" height="80" as="geometry" />
        </mxCell>
        <mxCell id="s7dhyp-YbU7fS7x3VsV7-5" value="Configuración" style="ellipse;whiteSpace=wrap;html=1;" vertex="1" parent="1">
          <mxGeometry x="330" y="560" width="120" height="80" as="geometry" />
        </mxCell>
        <mxCell id="s7dhyp-YbU7fS7x3VsV7-6" value="Modificar Viaje" style="ellipse;whiteSpace=wrap;html=1;" vertex="1" parent="1">
          <mxGeometry x="480" y="230" width="120" height="80" as="geometry" />
        </mxCell>
        <mxCell id="s7dhyp-YbU7fS7x3VsV7-7" value="Crear / Eliminar gastos" style="ellipse;whiteSpace=wrap;html=1;" vertex="1" parent="1">
          <mxGeometry x="580" y="130" width="120" height="80" as="geometry" />
        </mxCell>
        <mxCell id="s7dhyp-YbU7fS7x3VsV7-8" value="Crear / Eliminar Viajes" style="ellipse;whiteSpace=wrap;html=1;" vertex="1" parent="1">
          <mxGeometry x="580" y="310" width="120" height="80" as="geometry" />
        </mxCell>
        <mxCell id="s7dhyp-YbU7fS7x3VsV7-9" value="Modificar Usuario" style="ellipse;whiteSpace=wrap;html=1;" vertex="1" parent="1">
          <mxGeometry x="580" y="450" width="120" height="80" as="geometry" />
        </mxCell>
        <mxCell id="s7dhyp-YbU7fS7x3VsV7-10" value="Eliminar Usuario" style="ellipse;whiteSpace=wrap;html=1;" vertex="1" parent="1">
          <mxGeometry x="580" y="550" width="120" height="80" as="geometry" />
        </mxCell>
        <mxCell id="s7dhyp-YbU7fS7x3VsV7-11" value="Consultar Usuario" style="ellipse;whiteSpace=wrap;html=1;" vertex="1" parent="1">
          <mxGeometry x="580" y="650" width="120" height="80" as="geometry" />
        </mxCell>
        <mxCell id="s7dhyp-YbU7fS7x3VsV7-12" value="" style="endArrow=none;html=1;rounded=0;exitX=0.905;exitY=0.247;exitDx=0;exitDy=0;exitPerimeter=0;" edge="1" parent="1" source="s7dhyp-YbU7fS7x3VsV7-3">
          <mxGeometry width="50" height="50" relative="1" as="geometry">
            <mxPoint x="450" y="320" as="sourcePoint" />
            <mxPoint x="480" y="290" as="targetPoint" />
            <Array as="points">
              <mxPoint x="470" y="300" />
            </Array>
          </mxGeometry>
        </mxCell>
        <mxCell id="s7dhyp-YbU7fS7x3VsV7-13" value="" style="endArrow=none;html=1;rounded=0;" edge="1" parent="1">
          <mxGeometry width="50" height="50" relative="1" as="geometry">
            <mxPoint x="570" y="230" as="sourcePoint" />
            <mxPoint x="600" y="200" as="targetPoint" />
            <Array as="points">
              <mxPoint x="590" y="210" />
            </Array>
          </mxGeometry>
        </mxCell>
        <mxCell id="s7dhyp-YbU7fS7x3VsV7-14" value="" style="endArrow=none;html=1;rounded=0;" edge="1" parent="1" target="s7dhyp-YbU7fS7x3VsV7-8">
          <mxGeometry width="50" height="50" relative="1" as="geometry">
            <mxPoint x="590" y="290" as="sourcePoint" />
            <mxPoint x="620" y="260" as="targetPoint" />
            <Array as="points" />
          </mxGeometry>
        </mxCell>
        <mxCell id="s7dhyp-YbU7fS7x3VsV7-15" value="" style="endArrow=none;html=1;rounded=0;" edge="1" parent="1" target="s7dhyp-YbU7fS7x3VsV7-9">
          <mxGeometry width="50" height="50" relative="1" as="geometry">
            <mxPoint x="440" y="570" as="sourcePoint" />
            <mxPoint x="470" y="540" as="targetPoint" />
            <Array as="points" />
          </mxGeometry>
        </mxCell>
        <mxCell id="s7dhyp-YbU7fS7x3VsV7-16" value="" style="endArrow=none;html=1;rounded=0;" edge="1" parent="1" target="s7dhyp-YbU7fS7x3VsV7-10">
          <mxGeometry width="50" height="50" relative="1" as="geometry">
            <mxPoint x="450" y="609" as="sourcePoint" />
            <mxPoint x="599" y="550" as="targetPoint" />
            <Array as="points" />
          </mxGeometry>
        </mxCell>
        <mxCell id="s7dhyp-YbU7fS7x3VsV7-17" value="" style="endArrow=none;html=1;rounded=0;entryX=0.031;entryY=0.356;entryDx=0;entryDy=0;entryPerimeter=0;" edge="1" parent="1" target="s7dhyp-YbU7fS7x3VsV7-11">
          <mxGeometry width="50" height="50" relative="1" as="geometry">
            <mxPoint x="440" y="623" as="sourcePoint" />
            <mxPoint x="571" y="610" as="targetPoint" />
            <Array as="points" />
          </mxGeometry>
        </mxCell>
        <mxCell id="s7dhyp-YbU7fS7x3VsV7-18" value="Viajero" style="shape=umlActor;verticalLabelPosition=bottom;verticalAlign=top;html=1;outlineConnect=0;" vertex="1" parent="1">
          <mxGeometry x="70" y="360" width="60" height="120" as="geometry" />
        </mxCell>
        <mxCell id="s7dhyp-YbU7fS7x3VsV7-23" value="" style="endArrow=none;html=1;rounded=0;" edge="1" parent="1" target="s7dhyp-YbU7fS7x3VsV7-2">
          <mxGeometry width="50" height="50" relative="1" as="geometry">
            <mxPoint x="160" y="390" as="sourcePoint" />
            <mxPoint x="320" y="280" as="targetPoint" />
            <Array as="points">
              <mxPoint x="310" y="290" />
            </Array>
          </mxGeometry>
        </mxCell>
        <mxCell id="s7dhyp-YbU7fS7x3VsV7-25" value="" style="endArrow=none;html=1;rounded=0;" edge="1" parent="1" target="s7dhyp-YbU7fS7x3VsV7-3">
          <mxGeometry width="50" height="50" relative="1" as="geometry">
            <mxPoint x="160" y="433" as="sourcePoint" />
            <mxPoint x="346" y="310" as="targetPoint" />
            <Array as="points" />
          </mxGeometry>
        </mxCell>
        <mxCell id="s7dhyp-YbU7fS7x3VsV7-26" value="" style="endArrow=none;html=1;rounded=0;entryX=0;entryY=0.5;entryDx=0;entryDy=0;" edge="1" parent="1" target="s7dhyp-YbU7fS7x3VsV7-4">
          <mxGeometry width="50" height="50" relative="1" as="geometry">
            <mxPoint x="160" y="470" as="sourcePoint" />
            <mxPoint x="210" y="420" as="targetPoint" />
          </mxGeometry>
        </mxCell>
        <mxCell id="s7dhyp-YbU7fS7x3VsV7-27" value="" style="endArrow=none;html=1;rounded=0;entryX=0.02;entryY=0.425;entryDx=0;entryDy=0;entryPerimeter=0;" edge="1" parent="1" target="s7dhyp-YbU7fS7x3VsV7-5">
          <mxGeometry width="50" height="50" relative="1" as="geometry">
            <mxPoint x="160" y="500" as="sourcePoint" />
            <mxPoint x="330" y="500" as="targetPoint" />
          </mxGeometry>
        </mxCell>
        <mxCell id="s7dhyp-YbU7fS7x3VsV7-28" value="&lt;font style=&quot;font-size: 15px;&quot;&gt;&lt;b&gt;Aplicación TravelMate&lt;/b&gt;&lt;/font&gt;" style="text;html=1;align=center;verticalAlign=middle;whiteSpace=wrap;rounded=0;" vertex="1" parent="1">
          <mxGeometry x="340" y="140" width="170" height="30" as="geometry" />
        </mxCell>
      </root>
    </mxGraphModel>
  </diagram>
</mxfile>
